<svg xmlns="http://www.w3.org/2000/svg" width="40" height="40"><g fill="none" fill-rule="evenodd"><path fill="#FFF" fill-rule="nonzero" d="M19.984 35.61c8.83 0 15.985-7.155 15.985-15.985 0-8.83-7.155-15.984-15.985-15.984C11.154 3.64 4 10.795 4 19.625s7.154 15.984 15.984 15.984zm3.784-7.98-3.996-2.945-1.928 1.856c-.212.213-.393.393-.805.393l.283-4.067 7.406-6.69c.322-.284-.07-.445-.496-.161l-9.153 5.762-3.944-1.231c-.857-.271-.877-.858.18-1.27l15.411-5.943c.716-.257 1.34.174 1.109 1.257L25.21 26.953c-.193.877-.715 1.09-1.443.677z"/><path d="M.5.5h39v39H.5z"/></g></svg>