<svg xmlns="http://www.w3.org/2000/svg" width="20" height="20" fill="none"><path fill="#0D0D11" fill-opacity=".01" d="M0 0h20v20H0z"/><path fill="url(#a)" d="M17.563 2.188a.935.935 0 0 1 .375 1l-2 12.968a.877.877 0 0 1-.5.719.932.932 0 0 1-.47.125c-.124 0-.25 0-.405-.063l-3.75-1.562-2.688 2.563C8.094 18 8.031 18 7.969 18c-.063 0-.157-.031-.22-.156L5.813 13.25l-3.218-1.344c-.344-.156-.594-.5-.594-.844-.031-.374.156-.718.5-.937l14-7.969A.944.944 0 0 1 17 2c.188 0 .375.063.563.188zM3 11l2.844 1.219 9.031-8L3 11zm5.25 5.469 1.625-1.563-1.063-.437c-.156-.031-.25-.156-.312-.313a.542.542 0 0 1 .094-.437l5.281-7.281-7.156 6.343 1.53 3.688zm6.75-.594 1.813-11.781L9.78 13.78 15 15.875z"/><defs><linearGradient id="a" x1="3.125" x2="21.02" y1="17.5" y2="1.114" gradientUnits="userSpaceOnUse"><stop stop-color="#F4E8DC"/><stop offset=".109" stop-color="#F5EADD"/><stop offset=".22" stop-color="#EFE3E7"/><stop offset=".338" stop-color="#DCEDE2"/><stop offset=".521" stop-color="#D0E7E2"/><stop offset=".608" stop-color="#CDE0EC"/><stop offset=".706" stop-color="#CAD4F5"/><stop offset=".799" stop-color="#C5D8ED"/><stop offset=".88" stop-color="#E6FAF5"/><stop offset="1" stop-color="#fff"/></linearGradient></defs></svg>