<svg xmlns="http://www.w3.org/2000/svg" width="40" height="40"><g fill="none" fill-rule="evenodd"><path d="M.5.5h39v39H.5z"/><path fill="#FFF" fill-rule="nonzero" d="M25.781 33.124c2.244-.106 4.231-.619 5.869-2.262 1.637-1.638 2.15-3.625 2.262-5.87.132-2.312.132-9.237 0-11.55-.106-2.243-.618-4.23-2.262-5.868-1.638-1.637-3.625-2.15-5.869-2.262-2.312-.132-9.244-.132-11.556 0-2.238.106-4.225.618-5.869 2.256-1.643 1.637-2.15 3.625-2.262 5.869-.131 2.312-.131 9.243 0 11.556.106 2.244.619 4.231 2.262 5.869 1.644 1.637 3.625 2.15 5.869 2.262 2.312.131 9.244.131 11.556 0zM20.006 30.7c-2.037 0-6.418.163-8.256-.562a4.727 4.727 0 0 1-2.662-2.663c-.732-1.844-.563-6.219-.563-8.256 0-2.038-.163-6.419.563-8.256A4.727 4.727 0 0 1 11.75 8.3c1.844-.731 6.219-.562 8.256-.562 2.038 0 6.419-.163 8.256.562a4.727 4.727 0 0 1 2.663 2.663c.731 1.843.562 6.218.562 8.256 0 2.037.17 6.419-.562 8.256a4.727 4.727 0 0 1-2.663 2.663c-1.843.73-6.218.562-8.256.562zm7.475-17.281a1.675 1.675 0 1 0 0-3.35 1.675 1.675 0 0 0 0 3.35zM20.006 26.4a7.17 7.17 0 0 0 7.181-7.181 7.17 7.17 0 0 0-7.18-7.181 7.17 7.17 0 0 0-7.182 7.18 7.17 7.17 0 0 0 7.181 7.182zm0-2.512a4.677 4.677 0 0 1-4.668-4.67 4.673 4.673 0 0 1 4.668-4.668 4.673 4.673 0 0 1 4.669 4.669c0 2.575-2.1 4.669-4.669 4.669z"/></g></svg>