<svg xmlns="http://www.w3.org/2000/svg" width="21" height="21" fill="none"><path fill="#000" d="M10.549 2.239c3.844 0 7 1.125 7 2.5v11c0 1.406-3.156 2.5-7 2.5-3.875 0-7-1.094-7-2.5v-11c0-1.375 3.125-2.5 7-2.5zm0 1c-3.875 0-5.906 1.125-6.031 1.53v2.5c1.625.626 3.75.97 6.03.97 2.25 0 4.376-.344 6-.97V4.74c-.124-.375-2.155-1.5-6-1.5zm6 5.062c-1.688.594-3.781.938-6.031.938-2.22 0-4.313-.344-6-.938l.03 3.969c1.595.625 3.72.969 6 .969 2.25 0 4.376-.344 6-.97V8.302zm-6 8.937c3.844 0 5.875-1.093 5.969-1.5v-2.437c-1.688.594-3.782.938-6 .938-2.22 0-4.313-.344-6-.938l.03 2.438c.095.406 2.157 1.5 6 1.5z"/></svg>