<svg xmlns="http://www.w3.org/2000/svg" width="21" height="20" fill="none"><path fill="#0D0D11" fill-opacity=".01" d="M1 0h20v20H1z"/><path fill="url(#a)" d="M14.25 10.375a.524.524 0 0 1 .656.312c.094.281-.062.563-.312.625l-1.438.5a2.12 2.12 0 0 1-.656 1.313l1.406 4.218c.094.282-.03.563-.312.657h-.156c-.188 0-.407-.125-.469-.313l-1.344-4.031a2.437 2.437 0 0 1-.687.094c-.219 0-.469-.032-.688-.094l-1.344 4.031a.481.481 0 0 1-.468.313H8.28a.524.524 0 0 1-.312-.657l1.406-4.218c-.062-.063-.094-.125-.156-.188l-4.125 1.219a1.109 1.109 0 0 1-.313.062.984.984 0 0 1-.906-.593c-.125-.344-.969-2.438-1.125-2.844a.992.992 0 0 1 .5-1.25l8.719-4.469a.478.478 0 0 1 .656.219c.094.25.031.531-.219.656l-8.75 4.5c.157.375 1 2.469 1.125 2.813l3.97-1.22a1.587 1.587 0 0 1-.095-.53c0-1.22 1.032-2.25 2.25-2.25 1 0 1.813.656 2.125 1.53l1.22-.405zm-3.312 2.375c.687 0 1.25-.563 1.25-1.25 0-.688-.563-1.25-1.25-1.25-.688 0-1.25.562-1.25 1.25 0 .687.562 1.25 1.25 1.25zm-9-.657.562 1.375c.125.25 0 .532-.25.657-.062 0-.125.03-.187.03a.481.481 0 0 1-.469-.312l-.563-1.375c-.125-.25 0-.53.25-.656.25-.094.563.031.657.281zm18.969-3.75c.062.125.093.25.093.375 0 .344-.25.72-.593.875l-3.282 1.344a1.33 1.33 0 0 1-.343.063c-.375 0-.75-.22-.876-.563l-2.375-5.781a.63.63 0 0 1-.093-.344c0-.375.25-.75.593-.875l3.25-1.344c.5-.218 1.063.063 1.25.5l2.376 5.75zm-4.094 1.688 3.125-1.375-2.375-5.719-3.188 1.375 2.438 5.719z"/><defs><linearGradient id="a" x1="4.125" x2="22.02" y1="17.5" y2="1.114" gradientUnits="userSpaceOnUse"><stop stop-color="#F4E8DC"/><stop offset=".109" stop-color="#F5EADD"/><stop offset=".22" stop-color="#EFE3E7"/><stop offset=".338" stop-color="#DCEDE2"/><stop offset=".521" stop-color="#D0E7E2"/><stop offset=".608" stop-color="#CDE0EC"/><stop offset=".706" stop-color="#CAD4F5"/><stop offset=".799" stop-color="#C5D8ED"/><stop offset=".88" stop-color="#E6FAF5"/><stop offset="1" stop-color="#fff"/></linearGradient></defs></svg>