<svg xmlns="http://www.w3.org/2000/svg" width="21" height="21" fill="none"><path fill="#000" d="M16.69 3.239c.813 0 1.5.687 1.5 1.5v10c0 1.406-1.125 2.5-2.5 2.5H4.19c-1.125 0-2-.876-2-2v-9.5c0-.25.22-.5.5-.5.25 0 .5.25.5.5v9.5c0 .562.438 1 1 1 .532 0 1-.438 1-1v-10.5a1.5 1.5 0 0 1 1.5-1.5h10zm.5 11.5v-10c0-.25-.25-.5-.5-.5h-10c-.28 0-.5.25-.5.5v10.5c0 .374-.125.718-.28 1h9.78a1.5 1.5 0 0 0 1.5-1.5zm-6.5-3c.25 0 .5.25.5.5 0 .28-.25.5-.5.5h-3a.494.494 0 0 1-.5-.5c0-.25.22-.5.5-.5h3zm5 0c.25 0 .5.25.5.5 0 .28-.25.5-.5.5h-3a.494.494 0 0 1-.5-.5c0-.25.22-.5.5-.5h3zm-5 2c.25 0 .5.25.5.5 0 .28-.25.5-.5.5h-3a.494.494 0 0 1-.5-.5c0-.25.22-.5.5-.5h3zm5 0c.25 0 .5.25.5.5 0 .28-.25.5-.5.5h-3a.494.494 0 0 1-.5-.5c0-.25.22-.5.5-.5h3zm-.5-8.5c.532 0 1 .468 1 1v3c0 .562-.468 1-1 1h-7c-.562 0-1-.438-1-1v-3c0-.532.438-1 1-1h7zm0 4v-3h-7v3h7z"/></svg>