<svg xmlns="http://www.w3.org/2000/svg" width="40" height="40"><g fill="none" fill-rule="evenodd"><path d="M.5.5h39v39H.5z"/><path fill="#FFF" d="M12.8 10.215a8.845 8.845 0 0 0-.307.01l-.18.015a9.086 9.086 0 0 0-3.602 1.071 9.04 9.04 0 0 0-4.65 6.82 7.879 7.879 0 0 0-.066 1.134c0 .405.008.57.041.897a9.07 9.07 0 0 0 2.77 5.647 9.056 9.056 0 0 0 5.753 2.474c.19.01.76.01.95 0a9.072 9.072 0 0 0 2.895-.64 9.028 9.028 0 0 0 4.711-4.334 8.952 8.952 0 0 0 .958-4.044c0-.47-.014-.726-.065-1.135a9.046 9.046 0 0 0-8.371-7.9c-.189-.014-.571-.02-.836-.015m14.301.425a2.9 2.9 0 0 0-.893.258c-.94.446-1.774 1.408-2.401 2.768-.593 1.284-.965 2.848-1.077 4.522-.026.394-.034.642-.034 1.07 0 .427.008.674.034 1.062.132 1.95.616 3.746 1.377 5.11.186.331.354.59.56.861.545.712 1.186 1.213 1.842 1.438a2.638 2.638 0 0 0 2.106-.164c.525-.264 1.031-.708 1.478-1.3.817-1.079 1.413-2.58 1.727-4.348.112-.634.176-1.222.217-2.004a22.73 22.73 0 0 0 0-1.306c-.063-1.406-.286-2.678-.673-3.848-.285-.86-.617-1.558-1.052-2.214-.391-.588-.852-1.07-1.333-1.391a2.928 2.928 0 0 0-.42-.244 2.796 2.796 0 0 0-.932-.27 3.244 3.244 0 0 0-.526 0m7.108 1.047c-.189.065-.366.27-.543.627-.438.882-.771 2.591-.917 4.699a34.79 34.79 0 0 0-.04 3.986c.104 2.228.418 4.123.855 5.177.203.489.428.78.66.857a.34.34 0 0 0 .126.01.26.26 0 0 0 .151-.037.8.8 0 0 0 .128-.083c.53-.443.984-2.063 1.211-4.33.26-2.602.187-5.658-.191-7.928-.215-1.294-.51-2.222-.852-2.692a1.161 1.161 0 0 0-.243-.24.413.413 0 0 0-.345-.046"/></g></svg>