<svg xmlns="http://www.w3.org/2000/svg" width="40" height="40"><g fill="none" fill-rule="evenodd"><path d="M.5.5h39v39H.5z"/><path fill="#FFF" fill-rule="nonzero" d="M34.875 38.125v-29.6a3.39 3.39 0 0 0-3.383-3.4H9.382A3.39 3.39 0 0 0 6 8.525v22.307a3.39 3.39 0 0 0 3.383 3.399h18.71l-.874-3.053c2.568 2.388 3.394 3.162 4.23 3.916l.202.181c.68.609 1.455 1.287 3.224 2.85zm-9.752-11.451s-.392-.468-.804-.98l-.19-.238-.095-.119c2.162-.61 2.987-1.963 2.987-1.963a9.44 9.44 0 0 1-1.898.974c-3.555 1.493-7.51.982-10.296-.578-.033-.022-.433-.243-.676-.412 0 0 .792 1.32 2.887 1.947l-.094.118-.287.36c-.38.473-.724.891-.724.891-3.647-.115-5.032-2.508-5.032-2.508 0-5.313 2.376-9.62 2.376-9.62 2.375-1.781 4.636-1.732 4.636-1.732l.165.198c-2.97.858-4.34 2.162-4.34 2.162s.091-.05.258-.135l.192-.095c.144-.071.32-.155.524-.249 3.802-1.67 8.406-1.67 12.325.479 0 0-1.303-1.238-4.108-2.096l.231-.264s2.26-.05 4.636 1.733c0 0 2.376 4.306 2.376 9.619 0 0-1.402 2.393-5.049 2.508zm-1.65-4.042c.941 0 1.683-.825 1.683-1.832 0-1.006-.742-1.831-1.683-1.831-.94 0-1.683.825-1.683 1.831 0 1.007.76 1.832 1.683 1.832zm-6.022 0c.94 0 1.683-.825 1.683-1.832.016-1.006-.743-1.831-1.683-1.831-.94 0-1.683.825-1.683 1.831 0 1.007.759 1.832 1.683 1.832z"/></g></svg>