<svg xmlns="http://www.w3.org/2000/svg" width="20" height="20" fill="none"><path fill="#0D0D11" fill-opacity=".01" d="M0 0h20v20H0z"/><path fill="url(#a)" d="M10 13c-.156 0-.281-.031-.375-.125l-4.5-4.5a.53.53 0 0 1 0-.719.53.53 0 0 1 .719 0L9.5 11.313V2.5c0-.25.219-.5.5-.5.25 0 .5.25.5.5v8.813l3.625-3.657a.53.53 0 0 1 .719 0 .53.53 0 0 1 0 .719l-4.5 4.5A.47.47 0 0 1 10 13zm7 2.5c0 1.406-1.125 2.5-2.5 2.5h-9A2.468 2.468 0 0 1 3 15.5v-3c0-.25.219-.5.5-.5.25 0 .5.25.5.5v3c0 .844.656 1.5 1.5 1.5h9a1.5 1.5 0 0 0 1.5-1.5v-3c0-.25.219-.5.5-.5.25 0 .5.25.5.5v3z"/><defs><linearGradient id="a" x1="3.125" x2="21.02" y1="17.5" y2="1.114" gradientUnits="userSpaceOnUse"><stop stop-color="#F4E8DC"/><stop offset=".109" stop-color="#F5EADD"/><stop offset=".22" stop-color="#EFE3E7"/><stop offset=".338" stop-color="#DCEDE2"/><stop offset=".521" stop-color="#D0E7E2"/><stop offset=".608" stop-color="#CDE0EC"/><stop offset=".706" stop-color="#CAD4F5"/><stop offset=".799" stop-color="#C5D8ED"/><stop offset=".88" stop-color="#E6FAF5"/><stop offset="1" stop-color="#fff"/></linearGradient></defs></svg>