<svg xmlns="http://www.w3.org/2000/svg" width="40" height="40"><g fill="none" fill-rule="evenodd"><path fill="#FFF" fill-rule="nonzero" d="m25.884 31.893.637-.023c2.77-.102 5.584-.284 6.794-.61 1.514-.408 2.707-1.558 3.112-3.082.686-2.58.732-7.773.735-8.454v-.148c-.003-.681-.049-5.875-.735-8.453a4.423 4.423 0 0 0-3.112-3.133c-1.21-.326-4.024-.508-6.794-.61l-.637-.023a220.775 220.775 0 0 0-6-.106h-.643c-.864.003-3.353.02-6 .106l-.637.023c-2.77.102-5.584.284-6.794.61a4.423 4.423 0 0 0-3.112 3.133c-.67 2.517-.73 7.526-.735 8.397v.26c.005.871.065 5.88.735 8.398.405 1.524 1.598 2.674 3.112 3.082 1.21.326 4.024.508 6.794.61l.637.023c2.647.086 5.136.103 6 .106h.643c.864-.003 3.353-.02 6-.106zm-9.922-7.01V14.417l9.2 5.234-9.2 5.234z"/><path d="M.5.5h39v39H.5z"/></g></svg>