<svg xmlns="http://www.w3.org/2000/svg" width="20" height="21" fill="none"><path fill="#000" d="M11 9.739a.494.494 0 0 1-.5-.5v-6.5c0-.25.188-.47.438-.47L11 2.24c3.844 0 7 3.156 7 7l-.031.062c0 .25-.219.438-.469.438H11zm.5-6.47v5.47h5.469a6.012 6.012 0 0 0-5.469-5.47zM9 3.802v7.438l4.875 4.906c.219.218.188.562-.031.718A7.553 7.553 0 0 1 9.5 18.238a7.482 7.482 0 0 1-7.5-7.5 7.482 7.482 0 0 1 6.438-7.406.472.472 0 0 1 .562.469zm-.719 8.156a.99.99 0 0 1-.281-.72V4.426c-2.875.688-5 3.25-5 6.313 0 3.593 2.906 6.5 6.5 6.5a6.68 6.68 0 0 0 3.219-.844L8.28 11.957zm8.313 4.281a.483.483 0 0 1-.657-.03l-4.093-4.094c-.313-.313-.094-.876.344-.876h6.25c.28 0 .53.25.468.532a7.32 7.32 0 0 1-2.312 4.468zm1.218-4h-4.406l2.875 2.907a6.38 6.38 0 0 0 1.532-2.906z"/></svg>