<svg xmlns="http://www.w3.org/2000/svg" width="21" height="21" fill="none"><path fill="#000" d="M16.544 3.239c.25 0 .5.25.5.5 0 .28-.25.5-.5.5h-12a1.5 1.5 0 0 0-1.5 1.5v9c0 .843.656 1.5 1.5 1.5h11a1.5 1.5 0 0 0 1.5-1.5v-7c0-.813-.688-1.5-1.5-1.5h-10a.494.494 0 0 1-.5-.5c0-.25.219-.5.5-.5h10c1.375 0 2.5 1.125 2.5 2.5v7c0 1.406-1.125 2.5-2.5 2.5h-11a2.468 2.468 0 0 1-2.5-2.5v-9c0-1.375 1.094-2.5 2.5-2.5h12zm-3.25 8a.74.74 0 0 1 .75-.75.76.76 0 0 1 .75.75.74.74 0 0 1-.75.75.722.722 0 0 1-.75-.75z"/></svg>