<svg xmlns="http://www.w3.org/2000/svg" width="410" height="184" fill="none"><path fill="url(#a)" fill-rule="evenodd" d="M-106.874.264a.5.5 0 0 0 0 1H538.9a.5.5 0 0 0 0-1h-645.774zm-.5 3.945a.5.5 0 0 1 .5-.5H538.9a.5.5 0 0 1 0 1h-645.774a.5.5 0 0 1-.5-.5zm.5 7.584a.5.5 0 0 0 0 1H538.9a.5.5 0 0 0 0-1h-645.774zM17.124 25.238a.5.5 0 0 0-.316-.949L5.193 28.165h-31.467l10.212-2.92a.5.5 0 1 0-.275-.962l-13.573 3.882h-30.988l11.654-2.916a.5.5 0 1 0-.243-.97l-15.53 3.886h-30.5l13.094-2.913a.5.5 0 1 0-.218-.976l-17.481 3.889h-6.752a.5.5 0 0 0 0 1h2.257l-2.366.527a.5.5 0 1 0 .217.976l6.754-1.503h31l-24.378 6.1h-13.484a.5.5 0 0 0 0 1h9.488l-9.61 2.406a.5.5 0 1 0 .243.97l13.486-3.375h35.034l-25.37 7.256h-23.271a.5.5 0 0 0 0 1h19.775l-19.913 5.695a.5.5 0 0 0 .275.961l23.275-6.656h39.635l-26.13 8.718h-36.917a.5.5 0 0 0 0 1h33.92l-31.802 10.612h-2.118a.5.5 0 0 0-.34.866.5.5 0 0 0 .497.842l2.124-.708h50.756l-32.751 13.113h-20.286a.5.5 0 0 0 0 1h17.788l-17.974 7.197a.5.5 0 1 0 .372.928l20.293-8.125h58.266l-33.013 16.52h-45.732a.5.5 0 0 0 0 1h43.734l-42.627 21.332h-1.107a.5.5 0 0 0-.395.807.5.5 0 0 0 .619.754l1.119-.561h78.614l-42.629 28.44h-37.328a.5.5 0 0 0 0 1h35.83l-36.108 24.089a.5.5 0 1 0 .555.832l37.354-24.921h93.721l-39.568 39.585h-91.784a.5.5 0 0 0 0 1h90.785l-66.866 66.895h-23.782a.5.5 0 0 0 0 1h22.782l-23.136 23.146a.5.5 0 0 0 .708.707l23.842-23.853H65.694L54.05 281.013a.5.5 0 1 0 .894.447l11.867-23.723h148.442l-.02 23.499a.5.5 0 0 0 1 .001l.02-23.5h148.445l11.825 23.723a.5.5 0 0 0 .895-.446l-11.603-23.277h148.236l23.801 23.853a.5.5 0 0 0 .708-.707l-23.097-23.146h22.743a.5.5 0 1 0 0-1h-23.741l-66.751-66.895H538.9a.5.5 0 0 0 0-1h-92.183l-39.5-39.585h93.723l37.682 25.168a.5.5 0 1 0 .556-.831l-36.437-24.337H538.9a.5.5 0 0 0 0-1h-37.657l-42.579-28.44h78.614l1.398.701a.501.501 0 0 0 .553-.824.5.5 0 0 0-.329-.877h-1.386l-42.59-21.332H538.9a.5.5 0 0 0 0-1h-45.972l-32.984-16.52h58.273l20.497 8.212a.5.5 0 1 0 .372-.928l-18.18-7.284H538.9a.5.5 0 0 0 0-1h-20.49l-32.73-13.113h50.751l2.311.77a.5.5 0 0 0 .46-.872.5.5 0 0 0-.302-.898h-2.306L504.812 54.24H538.9a.5.5 0 0 0 0-1h-37.084l-26.114-8.718h39.634l23.427 6.703a.5.5 0 0 0 .275-.961l-20.067-5.742H538.9a.5.5 0 0 0 0-1h-23.423l-25.355-7.256h35.04l13.617 3.409a.5.5 0 1 0 .243-.97l-9.743-2.44h9.621a.5.5 0 0 0 0-1h-13.615l-24.368-6.1h31l6.874 1.53a.5.5 0 1 0 .217-.976l-2.487-.554h2.379a.5.5 0 0 0 0-1h-6.873l-17.478-3.89a.5.5 0 0 0-.217.977l13.092 2.913h-30.501L481.4 24.279a.5.5 0 0 0-.243.97l11.648 2.916h-30.99l-13.565-3.882a.5.5 0 1 0-.275.961l10.206 2.921h-31.468l-11.609-3.876a.5.5 0 1 0-.316.949l8.767 2.927h-31.941l-9.648-3.866a.5.5 0 0 0-.372.929l7.332 2.937h-32.402l-7.683-3.848a.5.5 0 0 0-.448.894l5.899 2.954h-32.848l-5.715-3.817a.5.5 0 0 0-.556.832l4.47 2.985h-33.258l-3.746-3.755a.5.5 0 0 0-.708.707l3.042 3.048h-33.597l-1.807-3.624a.5.5 0 1 0-.895.446l1.585 3.178h-33.806l.003-3.4a.5.5 0 0 0-1-.002l-.003 3.402h-33.805l1.589-3.178a.5.5 0 1 0-.894-.447l-1.814 3.625h-33.598l3.047-3.048a.5.5 0 1 0-.708-.707l-3.753 3.755h-33.253l4.475-2.985a.499.499 0 1 0-.555-.832l-5.722 3.817H77.615l5.904-2.954a.5.5 0 0 0-.448-.894l-7.69 3.848H42.979l7.336-2.937a.5.5 0 0 0-.372-.929l-9.654 3.866H8.351l8.773-2.927zm518.157 93.579-42.59-21.332h-67.462l31.938 21.332h78.114zm-79.914 0-31.938-21.332h-67.872l21.286 21.332h78.524zm-79.937 0-21.286-21.332h-68.212l10.634 21.332h78.864zm-78.366 1h79.364l28.379 28.44h-93.566l-14.177-28.44zm-1.616-1-10.633-21.332h-68.422l-.019 21.332h79.074zm-79.074 1h79.573l14.177 28.44h-93.775l.025-28.44zm-1-1 .019-21.332h-68.421l-10.67 21.332h79.072zm-79.572 1h79.572l-.025 28.44h-93.773l14.226-28.44zm-.618-1 10.67-21.332H77.641l-21.323 21.332h78.866zm-79.865 1h79.364l-14.225 28.44H26.892l28.427-28.44zm-.415-1 21.323-21.332H8.358l-31.975 21.332h78.521zm-80.02 1h79.02l-28.426 28.44h-93.222l42.628-28.44zm-.303-1L6.556 97.485h-67.461l-42.627 21.332h78.113zm403.26 1h79.023l42.579 28.44h-93.224l-28.378-28.44zM8.055 96.485h-66.962l33.012-16.52h58.713L8.055 96.485zm1.802 0h67.37l16.513-16.52H34.62L9.857 96.485zm68.784 0h67.714l8.263-16.52H95.154L78.64 96.485zm68.832 0h67.921l.014-16.52h-59.672l-8.263 16.52zm68.921 0h67.922l-8.235-16.52h-59.673l-.014 16.52zm69.039 0h67.713l-16.485-16.52h-59.463l8.235 16.52zm69.126 0h67.373l-24.735-16.52h-59.123l16.485 16.52zm136.136 0h-66.963l-24.734-16.52h58.713l32.984 16.52zm25.026-17.52-32.73-13.113h-51.224l26.181 13.113h57.773zm-60.006 0-26.181-13.113h-51.667L397.5 78.965h58.215zm-60.015 0-19.633-13.113h-52.076l13.085 13.113H395.7zm-60.037 0-13.085-13.113h-52.415l6.537 13.113h58.963zm-60.081 0-6.537-13.113H216.42l-.011 13.113h59.173zm-60.173 0 .011-13.113h-52.624l-6.559 13.113h59.172zm-60.29 0 6.559-13.113h-52.417L96.153 78.965h58.966zm-60.38 0 13.108-13.113H55.775L36.119 78.965h58.62zm-60.422 0 19.656-13.113H2.308l-26.204 13.113h58.213zm-60.448 0L.073 65.852h-51.22l-32.75 13.113h57.766zm12.455 109.877 39.568-39.585h94.065l-19.801 39.585H-13.676zm114.95 0 19.801-39.585h94.273l-.034 39.585h-114.04zm115.04 0 .034-39.585h94.274l19.733 39.585H216.314zm115.158 0-19.732-39.585h94.064l39.5 39.585H331.472zm201.964-123.99L501.654 54.24h-44.956l26.486 10.612h50.252zm-52.941 0L454.009 54.24h-45.425l21.186 10.612h50.725zm-52.958 0L406.351 54.24h-45.868l15.887 10.612h51.167zm-52.967 0L358.683 54.24h-46.278l10.588 10.612h51.577zm-52.99 0L310.992 54.24h-46.617l5.289 10.612h51.916zm-53.033 0-5.29-10.612H216.43l-.009 10.612h52.126zm-53.126 0 .009-10.612h-46.826l-5.308 10.612h52.125zm-53.243 0 5.308-10.612h-46.619L110.26 64.852h51.918zm-53.331 0 10.606-10.612H73.179L57.274 64.852h51.573zm-53.375 0L71.377 54.24H25.51L4.306 64.852h51.166zm-53.4 0L23.275 54.24h-45.422L-48.65 64.852H2.07zm-53.411 0 26.502-10.612h-44.958l-31.801 10.612h50.257zm29-11.612h-44.459l26.13-8.718H-.563L-22.34 53.24zm47.613 0H-19.65l21.776-8.718h40.57L25.273 53.24zm47.602 0H27.508l17.423-8.718h41.014L72.876 53.24zm47.577 0H74.678l13.069-8.718h41.421l-8.715 8.718zm1.414 0h46.119l4.362-8.718h-41.766l-8.715 8.718zm47.238 0h46.326l.008-8.718h-41.973l-4.361 8.718zm47.326 0h46.328l-4.347-8.718h-41.973l-.008 8.718zm47.445 0h46.118l-8.7-8.718H259.53l4.346 8.718zm93.31 0h-45.779l-8.7-8.718h41.425l13.054 8.718zm47.169 0h-45.369l-13.054-8.718h41.016l17.407 8.718zm47.158 0h-44.925l-17.407-8.718h40.57l21.762 8.718zm47.146 0h-44.457l-21.762-8.718h40.105l26.114 8.718zm-528.43-24.075H2.197l-18.284 6.1H-51.1l21.33-6.1zm-35.123 0h31.487l-21.33 6.1H-89.27l24.377-6.1zm530.204 0h31.49l24.367 6.1h-34.539l-21.318-6.1zm-35.602 0h31.967l21.318 6.1H447.98l-18.272-6.1zm-35.598 0h32.44l18.272 6.1h-35.485l-15.227-6.1zm-35.589 0h32.901l15.226 6.1h-35.947l-12.18-6.1zm-35.58 0h33.347l12.18 6.1h-36.393l-9.134-6.1zm-35.558 0h33.758l9.133 6.1h-36.803l-6.088-6.1zm-35.508 0h34.096l6.087 6.1h-37.142l-3.041-6.1zm-35.423 0h34.305l3.041 6.1h-37.351l.005-6.1zm-35.305 0h34.305l-.005 6.1h-37.351l3.051-6.1zm-35.216 0h34.098l-3.051 6.1h-37.144l6.097-6.1zm-35.166 0h33.753l-6.098 6.1h-36.799l9.144-6.1zm-35.148 0h33.346l-9.144 6.1H63.426l12.191-6.1zm-35.136 0h32.901l-12.19 6.1H25.244l15.237-6.1zm-35.126 0h32.436l-15.237 6.1h-35.482l18.283-6.1zm506.487 14.357-25.355-7.256h-35.512l21.732 7.256h39.135zm-42.292 0-21.733-7.256h-35.984l18.111 7.256h39.606zm-42.295 0-18.111-7.256h-36.446l14.486 7.256h40.071zm-42.304 0-14.486-7.256h-36.893l10.863 7.256h40.516zm-42.316 0-10.864-7.256h-37.302l7.24 7.256h40.926zm-42.339 0-7.24-7.256h-37.642l3.617 7.256h41.265zm-42.382 0-3.617-7.256h-37.851l-.006 7.256h41.474zm-42.474 0 .006-7.256h-37.85l-3.63 7.256h41.474zm-42.592 0 3.629-7.256h-37.643l-7.253 7.256h41.267zm-42.681 0 7.253-7.256h-37.298l-10.876 7.256h40.921zm-42.723 0 10.876-7.256H61.428L46.93 43.522h40.515zm-42.75 0 14.5-7.256H22.747L4.625 43.522h40.07zm-42.76 0 18.123-7.256h-35.982l-21.746 7.256H1.935zm-42.764 0 21.745-7.256h-35.512l-25.369 7.256h39.136zm-40.711 213.215 66.866-66.895H99.656l-33.462 66.895H-81.541zm148.853 0 33.462-66.895h114.539l-.058 66.895H67.312zm148.943 0 .058-66.895h114.541l33.346 66.895H216.255zm149.063 0-33.347-66.895h114.331l66.752 66.895H365.318zM-107.374 17.079a.5.5 0 0 1 .5-.5H538.9a.5.5 0 0 1 0 1h-645.774a.5.5 0 0 1-.5-.5zm.5 4.912a.5.5 0 0 0 0 1H538.9a.5.5 0 0 0 0-1h-645.774zm0-14.46a.5.5 0 0 0 0 1H538.9a.5.5 0 0 0 0-1h-645.774z" clip-rule="evenodd"/><defs><linearGradient id="a" x1="216.013" x2="216.013" y1=".264" y2="281.737" gradientUnits="userSpaceOnUse"><stop stop-color="#3D3D52" stop-opacity="0"/><stop offset=".479" stop-color="#3D3D52"/></linearGradient></defs></svg>